<svg width="68" height="154" viewBox="0 0 68 154" fill="none" xmlns="http://www.w3.org/2000/svg">
<path fill-rule="evenodd" clip-rule="evenodd" d="M8.88228 0H60.3823V11.9568C65.3823 19.7547 65.3823 26.5129 65.3823 26.5129C55.3823 29.1122 50.3823 14.5561 50.3823 14.5561H46.3823C50.3823 30.6718 65.3823 32.2314 65.3823 32.2314C65.3823 32.2314 72.8823 91.4956 62.3823 141.402C63.8823 153.879 58.8823 153.879 58.8823 153.879H44.3823C40.3823 155.439 40.3823 141.402 40.3823 141.402C40.3823 141.402 35.8823 145.041 35.8823 84.2176C35.8823 81.0984 32.8823 81.0984 33.3823 84.2176C31.6992 134.529 31.7866 138.727 29.7705 140.421C29.3909 140.74 28.9368 140.97 28.3823 141.402C29.8823 153.879 25.3823 153.879 25.3823 153.879H8.88228C8.88228 153.879 4.88231 153.879 6.88228 141.402C-3.11772 141.402 -0.117649 40.0293 2.88228 32.2314C20.3824 28.5924 22.8823 14.5561 22.8823 14.5561H17.8823C17.8823 14.5561 14.3824 28.5924 2.88228 26.5129C1.38235 21.8342 8.88228 11.9568 8.88228 11.9568V0ZM56.8824 3.11917V9.87737H40.8824V7.27806H39.8824V5.71848H36.8824V7.27806H38.3824V9.87737H30.3824V7.27806H31.8824V5.71848H28.8824V7.27806H27.8824V9.87737H13.3824V3.11917H56.8824Z" fill="white"/>
</svg>
