<svg width="160" height="154" viewBox="0 0 160 154" fill="none" xmlns="http://www.w3.org/2000/svg">
<path fill-rule="evenodd" clip-rule="evenodd" d="M79.8676 30.9694L81.5 32.0614L99 42.0478L111.794 9.46075H117.5L159.5 53.6109L135.5 79.8908L123.5 67.2765L125 154H36L36.5 68.3276L25.5 79.8908L0 53.6109L42.5 9.46075H48.4154L61.5 42.5734L71.5 36.7918V63.5973H84V58.8669H76V34.1638L79.8676 30.9694ZM76.4755 28.7003L64 36.2662L53.6941 9.18249L58.7417 1.94703L76 28.3823L76.4755 28.7003ZM102.011 2.24861L83.6516 27.4866L97 35.7406L107.849 9.46075H107.5L102.011 2.24861ZM97.5339 0.187077L81.5 24.7031L80.488 25.5304L80 25.2287L63.3469 0H97L97.5339 0.187077ZM83 42.0478C83 43.4992 81.8807 44.6758 80.5 44.6758C79.1193 44.6758 78 43.4992 78 42.0478C78 40.5964 79.1193 39.4198 80.5 39.4198C81.8807 39.4198 83 40.5964 83 42.0478ZM80.5 54.1365C81.8807 54.1365 83 52.9599 83 51.5085C83 50.0571 81.8807 48.8805 80.5 48.8805C79.1193 48.8805 78 50.0571 78 51.5085C78 52.9599 79.1193 54.1365 80.5 54.1365Z" fill="white"/>
</svg>
