<svg width="124" height="155" viewBox="0 0 124 155" fill="none" xmlns="http://www.w3.org/2000/svg">
<path fill-rule="evenodd" clip-rule="evenodd" d="M89.3543 21.5202C89.1497 20.4143 88.6814 18.4535 87.6652 16.1684C84.3084 10.1449 78.9668 5.37714 72.5239 2.74796C69.5683 1.77805 66.102 1.14788 62.0375 1.02077C61.8583 1.01517 61.6786 0.965702 61.5065 0.882966C61.476 0.868296 61.4301 0.926126 61.4539 0.950275C61.471 0.967671 61.4573 0.997077 61.4329 0.997116C41.5465 1.02819 35.1977 14.9014 33.5221 20.0703C33.1153 21.3255 32.9998 22.6449 32.9998 23.9644V24.3698C32.9998 24.4303 33.0489 24.4793 33.1093 24.4793C33.1774 24.4793 33.229 24.5408 33.2177 24.6079C33.0758 25.4581 33.0076 26.3472 32.9998 27.2588V27.6144C33.0301 31.2297 33.9724 35.1626 35.0089 38.4142C35.4814 39.4559 35.9059 40.5503 36.265 41.5578C36.3469 41.7878 36.3985 42.0178 36.4222 42.2448C36.4337 42.3544 36.4553 42.4631 36.496 42.5655C36.5633 42.7349 36.6291 42.8982 36.6929 43.0552C36.9648 43.7232 36.4791 44.4641 35.7579 44.4641H31.9988L32 44.4669C32 44.4669 29.55 45.385 27.2864 47.9396L26.0196 49.9289C26.0073 49.9482 25.986 49.9599 25.9631 49.9599C25.9278 49.9599 25.8991 49.9787 25.8968 50.0139C25.1145 61.8309 20.1657 137.171 20.9769 139.838C20.9922 139.888 21.0126 139.907 21.0439 139.937L21.0581 139.95L21.0699 139.962L24.2067 143.096C24.3944 143.284 24.4998 143.538 24.4998 143.804V152.967C24.4998 153.232 24.6053 153.487 24.793 153.674L25.707 154.588C25.8945 154.775 26.1487 154.88 26.4138 154.88H97.5622C97.8412 154.88 98.1075 154.764 98.2968 154.559L98.7344 154.085C98.9051 153.9 98.9998 153.658 98.9998 153.407V143.804C98.9998 143.538 99.1053 143.284 99.293 143.096L102.43 139.962C102.439 139.952 102.448 139.944 102.456 139.937C102.487 139.907 102.507 139.888 102.523 139.838C103.322 137.211 98.5325 64.0764 97.6409 50.5885C97.5945 50.5518 97.5475 50.5099 97.5 50.4624C97.4044 50.2905 97.3067 50.1231 97.2071 49.9599C97.0759 49.9586 96.9529 49.8954 96.8756 49.7891L94.9467 47.1389C92.93 45.1902 91 44.4669 91 44.4669L91.0012 44.4641H85.4998C85.4776 44.4641 85.4626 44.4414 85.4715 44.421C85.7438 43.7971 86.1128 42.9189 86.5204 41.8571C86.5448 41.7937 86.5619 41.7278 86.575 41.6611C86.5962 41.5525 86.6233 41.4436 86.6565 41.3344C87.1117 39.8373 87.6686 38.1438 88.2662 36.6348C88.7856 34.7963 89.2377 32.8154 89.4999 30.8416V24.4797V24.4794V23.4523C89.4999 22.8024 89.4726 22.1593 89.3543 21.5202ZM19.2361 50.5545C19.3965 50.193 19.7548 49.9599 20.1503 49.9599H21.8993C22.4673 49.9599 22.9223 50.4054 22.8995 50.9729C22.3489 64.6935 19.6805 130.28 18.6465 139.009C18.5842 139.535 18.8923 140.036 19.3374 140.323C20.843 141.294 21.3492 142.819 21.4691 143.263C21.4917 143.347 21.4971 143.433 21.4917 143.52L21.246 147.448C21.213 147.975 20.776 148.385 20.2479 148.385H19.4998H18.4998H7.49984C6.94755 148.385 6.49984 147.938 6.49984 147.385V140.346C6.49984 140.057 6.37525 139.783 6.15806 139.593L2.98599 136.819C2.78571 136.478 2.61242 136.122 2.46248 135.76L0.10498 95.7126C0.329503 94.2986 0.72526 92.7563 1.17603 91.2746L19.2361 50.5545ZM101.6 49.9599C101.032 49.9599 100.577 50.4054 100.6 50.9729C101.151 64.6935 103.819 130.28 104.853 139.009C104.915 139.535 104.607 140.036 104.162 140.323C102.657 141.294 102.15 142.819 102.031 143.263C102.008 143.347 102.003 143.433 102.008 143.52L102.254 147.448C102.287 147.975 102.724 148.385 103.252 148.385H104H105.5H115.5C116.052 148.385 116.5 147.938 116.5 147.385V140.381C116.5 140.072 116.642 139.781 116.886 139.591L119.533 137.534C120.4 136.411 120.884 134.99 121.155 133.753L123.176 99.4253H123C123.528 97.0495 122.661 93 121.725 89.7087L105.257 50.5721C105.101 50.2011 104.738 49.9599 104.336 49.9599H101.6ZM78.7273 20.1747C76.3488 16.1853 71.2465 10.4898 61.4998 10.4898C50.7412 10.4898 45.6344 16.5891 43.443 20.5851C42.2615 22.7397 41.9943 25.2226 42.034 27.6796C42.0574 29.1279 42.0968 30.8241 42.1632 32.4283C42.288 35.4443 43.1342 38.3863 44.6221 41.0126C47.7999 46.6218 50.9103 50.1984 53.6497 52.5012C58.839 56.8635 66.8329 55.8745 71.5336 50.9896C74.4319 47.9777 76.6421 44.5528 78.143 41.8419C79.8784 38.7074 80.4998 35.1317 80.4998 31.5489V28.1886C80.4998 25.3972 80.1567 22.5723 78.7273 20.1747ZM15.4998 141.391C15.4998 140.839 15.0521 140.391 14.4998 140.391H11.4998C10.9476 140.391 10.4998 140.839 10.4998 141.391V142.089C10.4998 142.642 10.9476 143.089 11.4998 143.089H14.4998C15.0521 143.089 15.4998 142.642 15.4998 142.089V141.391ZM107.5 141.391C107.5 140.839 107.948 140.391 108.5 140.391H111.5C112.052 140.391 112.5 140.839 112.5 141.391V142.089C112.5 142.642 112.052 143.089 111.5 143.089H108.5C107.948 143.089 107.5 142.642 107.5 142.089V141.391ZM74.4998 56.4557C74.4998 55.9034 74.0521 55.4557 73.4998 55.4557C72.9476 55.4557 72.4998 55.9034 72.4998 56.4557V83.1249C72.4998 83.482 72.2942 83.7991 72.0484 84.0581C71.7084 84.4163 71.4998 84.9003 71.4998 85.433C71.4998 86.5367 72.3953 87.4315 73.4998 87.4315C74.6044 87.4315 75.4998 86.5367 75.4998 85.433C75.4998 84.9003 75.2913 84.4163 74.9513 84.0581C74.7055 83.7991 74.4998 83.482 74.4998 83.1249V56.4557ZM51.4998 56.4557C51.4998 55.9034 51.9476 55.4557 52.4998 55.4557C53.0521 55.4557 53.4998 55.9034 53.4998 56.4557V83.1249C53.4998 83.482 53.7055 83.7991 53.9513 84.0581C54.2913 84.4163 54.4998 84.9003 54.4998 85.433C54.4998 86.5367 53.6044 87.4315 52.4998 87.4315C51.3953 87.4315 50.4998 86.5367 50.4998 85.433C50.4998 84.9003 50.7084 84.4163 51.0484 84.0581C51.2942 83.7991 51.4998 83.482 51.4998 83.1249V56.4557ZM79.3658 105.558C79.4239 104.954 78.959 104.415 78.3524 104.415H46.5327C45.9678 104.415 45.5166 104.889 45.5187 105.454C45.565 117.919 39.0075 122.886 37.0469 124.092C36.7175 124.295 36.4999 124.646 36.4999 125.033V133.392C36.4999 133.944 36.9476 134.392 37.4999 134.392H86.9999C87.5522 134.392 87.9999 133.944 87.9999 133.392V125.005C87.9999 124.633 87.7987 124.293 87.4852 124.092C85.464 122.799 78.2354 117.309 79.3658 105.558Z" fill="white"/>
</svg>
