<svg width="95" height="154" viewBox="0 0 95 154" fill="none" xmlns="http://www.w3.org/2000/svg">
<path d="M68 3.73644C68 -1.24547 64 -1.24549 64 3.73644V16.1892L66 21.1703C66 21.1703 50.5 26.649 47 32.6269C42 26.1509 28 21.1703 28 21.1703L30.5 16.1892V3.73644C30.5 0.747083 26.5 0.747002 26.5 3.73644C26.5 26.1508 16.3326 38.6037 15.5 43.5854C17.6246 52.0527 26.5 66.4979 24.5 69.9853C20.501 76.9583 3.5 104.354 0 146.695C0 146.695 41.5 163.132 94 146.695C94 144.203 97 115.811 70 69.9853C70 66.9961 72 55.0414 78.5 43.5854C78.5 43.5854 68 23.1622 68 3.73644Z" fill="white"/>
</svg>
